<svg width="512" height="512" viewBox="0 0 512 512" xmlns="http://www.w3.org/2000/svg">
  <circle cx="256" cy="256" r="256" fill="#1a3a6b"/>
  <path d="M256 60
    C256 60 330 140 330 210
    C330 250 310 272 300 282
    C306 250 284 228 276 218
    C280 248 264 270 256 282
    C248 270 232 250 228 238
    C220 224 228 190 236 172
    C242 190 246 204 250 214
    C246 188 248 120 256 60Z"
    fill="#f5c518"/>
  <path d="M256 120
    C256 120 298 182 294 222
    C290 248 278 260 272 270
    C270 250 260 236 256 244
    C252 236 246 222 248 200
    C252 216 256 120 256 120Z"
    fill="#4ab8b8" opacity="0.75"/>
  <path d="M256 180
    C256 180 272 210 268 232
    C266 244 260 250 258 256
    C255 244 252 234 256 180Z"
    fill="white" opacity="0.4"/>
</svg>